<svg width="289" height="85" viewBox="0 0 289 85" fill="none" xmlns="http://www.w3.org/2000/svg">
<path d="M0.625 45.5341V33.5341L48.625 12.3977V26.2045L15.7614 39.3977L16.2045 38.6818V40.3864L15.7614 39.6705L48.625 52.8636V66.6705L0.625 45.5341ZM230.986 0.909086L208.486 84.5H195.974L218.474 0.909086H230.986ZM288.812 52.0795L240.812 73.2159V59.4091L273.676 46.2159L273.233 46.9318V45.2273L273.676 45.9432L240.812 32.75V18.9432L288.812 40.0795V52.0795Z" fill="white"/>
<path d="M59.2273 4.18182H75.7614L91.6818 34.25H92.3636L108.284 4.18182H124.818L99.3523 49.3182V74H84.6932V49.3182L59.2273 4.18182ZM190.264 28.625H175.332C175.06 26.6932 174.503 24.9773 173.662 23.4773C172.821 21.9545 171.741 20.6591 170.423 19.5909C169.105 18.5227 167.582 17.7045 165.855 17.1364C164.151 16.5682 162.298 16.2841 160.298 16.2841C156.685 16.2841 153.537 17.1818 150.855 18.9773C148.173 20.75 146.094 23.3409 144.616 26.75C143.139 30.1364 142.401 34.25 142.401 39.0909C142.401 44.0682 143.139 48.25 144.616 51.6364C146.116 55.0227 148.207 57.5795 150.889 59.3068C153.571 61.0341 156.673 61.8977 160.196 61.8977C162.173 61.8977 164.003 61.6364 165.685 61.1136C167.389 60.5909 168.901 59.8295 170.219 58.8295C171.537 57.8068 172.628 56.5682 173.491 55.1136C174.378 53.6591 174.991 52 175.332 50.1364L190.264 50.2045C189.878 53.4091 188.912 56.5 187.366 59.4773C185.844 62.4318 183.787 65.0795 181.196 67.4205C178.628 69.7386 175.56 71.5795 171.991 72.9432C168.446 74.2841 164.435 74.9545 159.957 74.9545C153.73 74.9545 148.162 73.5455 143.253 70.7273C138.366 67.9091 134.503 63.8295 131.662 58.4886C128.844 53.1477 127.435 46.6818 127.435 39.0909C127.435 31.4773 128.866 25 131.73 19.6591C134.594 14.3182 138.48 10.25 143.389 7.45455C148.298 4.63636 153.821 3.22727 159.957 3.22727C164.003 3.22727 167.753 3.79545 171.207 4.93182C174.685 6.06818 177.764 7.72727 180.446 9.90909C183.128 12.0682 185.31 14.7159 186.991 17.8523C188.696 20.9886 189.787 24.5795 190.264 28.625Z" fill="#64FFDA"/>
</svg>
